<svg xmlns="http://www.w3.org/2000/svg" width="720" height="160" viewBox="0 0 720 160">
  <path d="M124.3 108.2Q121.9 108.2 119.6 107.5Q117.4 106.9 115.4 104.1Q116.2 100.2 117.3 96.1Q118.3 92.1 119.6 87.9Q120.8 83.7 122.0 79.6Q123.3 75.5 124.5 72.0Q125.6 68.4 126.6 65.8Q127.5 63.1 128.0 61.7Q128.2 61.1 128.8 59.9Q129.3 58.8 130.1 57.5Q130.9 56.3 132.0 55.3Q133.2 54.2 134.7 54.2Q136.0 54.2 138.1 55.7Q135.5 61.7 133.2 67.9Q131.0 74.1 128.9 80.8Q126.8 87.4 125.1 93.7Q123.4 100.0 122.3 104.2Q122.3 104.0 122.9 104.0Q123.6 104.1 124.2 104.1Q128.6 104.1 132.6 102.1Q136.7 100.1 140.3 96.5Q143.9 92.9 146.7 88.2Q149.4 83.5 150.9 78.3Q152.4 73.1 152.4 67.9Q152.4 62.4 150.7 58.9Q148.9 55.4 145.9 53.7Q142.9 52.1 138.8 52.1Q134.4 52.1 130.9 53.8Q127.4 55.6 125.4 58.5Q123.4 61.4 123.4 65.0Q123.4 65.8 123.5 66.3Q123.6 66.9 124.1 68.8Q119.7 68.8 118.5 67.2Q117.2 65.7 117.2 63.6Q117.2 60.8 119.1 58.0Q121.0 55.2 124.3 52.9Q127.6 50.7 131.9 49.3Q136.2 47.9 140.9 47.9Q147.8 47.9 152.0 50.7Q156.2 53.5 158.1 58.3Q160.0 63.0 160.0 68.7Q160.0 75.2 158.0 81.1Q156.0 87.0 152.5 91.9Q149.0 96.8 144.4 100.5Q139.9 104.1 134.7 106.2Q129.6 108.2 124.3 108.2ZM169.6 105.1Q164.7 105.1 162.2 102.4Q159.7 99.6 159.7 95.7Q159.7 92.2 161.4 88.4Q163.1 84.6 165.9 81.3Q168.7 78.0 172.2 75.9Q175.6 73.8 179.1 73.8Q181.1 73.8 182.9 74.9Q184.7 76.0 184.7 79.3Q184.7 82.4 182.9 85.0Q181.1 87.7 178.4 89.7Q175.6 91.6 172.3 92.9Q169.1 94.1 166.5 94.2Q166.7 94.2 166.6 94.8Q166.6 95.4 166.6 95.9Q166.6 96.8 166.8 97.7Q167.0 98.6 167.5 99.3Q168.0 100.0 168.8 100.4Q169.7 100.8 171.1 100.8Q173.9 100.8 176.7 99.2Q179.6 97.5 182.0 94.8Q184.5 92.0 186.9 87.5L189.5 89.5Q187.1 94.8 184.0 98.1Q180.9 101.4 177.2 103.3Q173.5 105.1 169.6 105.1ZM167.7 90.2Q167.6 90.2 169.9 89.0Q172.3 87.8 174.5 86.2Q176.6 84.5 178.0 82.6Q179.3 80.8 179.3 78.8Q179.3 78.4 179.3 78.3Q179.2 78.3 178.9 78.3Q177.5 78.3 175.8 79.5Q174.1 80.7 172.3 82.7Q170.6 84.8 169.2 87.3Q167.9 89.8 167.7 90.2ZM187.1 122.1Q186.1 122.1 184.9 121.5Q183.7 120.9 182.9 119.3Q182.0 117.6 182.0 114.7Q182.0 111.4 183.1 106.2Q184.2 101.1 186.1 94.9Q188.0 88.8 190.5 82.3Q192.9 75.8 195.8 69.7Q198.7 63.7 201.7 58.8Q204.7 53.9 207.8 50.9Q210.9 47.9 214.0 47.9Q216.2 47.9 216.9 49.3Q217.6 50.6 217.6 52.2Q217.6 55.5 215.8 59.4Q214.0 63.2 211.1 67.0Q208.3 70.8 204.8 74.2Q201.4 77.6 198.1 79.8Q197.9 80.4 197.6 81.3Q197.3 82.2 196.8 82.2Q197.3 81.8 198.0 82.8Q198.7 83.8 198.8 84.9Q199.3 88.0 199.8 90.5Q200.3 92.8 201.3 94.0Q202.2 95.1 203.9 95.1Q205.9 95.1 207.5 93.5Q209.0 91.9 211.5 87.6L214.4 89.5Q212.1 95.0 209.0 97.1Q206.0 99.2 203.5 99.2Q202.0 99.2 200.4 98.5Q198.8 97.8 199.0 97.4Q199.3 100.4 198.3 105.0Q197.3 109.5 195.7 113.3Q194.1 117.2 191.9 119.6Q189.7 122.1 187.1 122.1ZM189.0 116.4Q189.2 116.4 190.0 115.3Q190.8 114.1 191.8 111.9Q192.7 109.6 193.5 106.9Q194.2 104.1 194.7 101.4Q195.2 98.7 195.2 96.5Q195.2 94.5 194.7 92.8Q194.1 91.0 194.1 91.0Q193.2 93.8 191.7 98.8Q190.3 103.8 189.5 107.8Q188.8 111.8 188.8 114.1Q188.8 116.4 189.0 116.4ZM201.3 71.9Q202.2 71.1 205.6 66.8Q208.9 62.5 210.7 59.3Q212.5 56.0 212.5 54.8Q212.6 54.8 212.6 55.0Q211.3 55.0 209.1 57.8Q206.9 60.6 204.4 65.5Q201.8 70.5 201.3 71.9ZM216.2 105.4Q213.5 105.4 211.7 103.6Q209.8 101.8 209.8 98.3Q209.8 95.5 211.0 92.3Q212.2 89.2 214.3 86.1Q216.4 83.1 219.0 80.6Q221.7 78.1 224.7 76.6Q227.8 75.0 230.9 75.0Q234.0 75.0 236.3 76.8Q238.5 78.5 238.5 81.5Q238.5 83.9 237.2 84.9Q235.8 85.8 232.4 85.8Q232.9 83.8 233.0 83.2Q233.1 82.6 233.1 82.1Q233.1 80.8 232.6 80.0Q232.0 79.2 230.7 79.2Q229.0 79.2 227.2 80.5Q225.3 81.8 223.4 84.0Q221.6 86.2 220.1 88.9Q218.6 91.5 217.8 94.0Q217.0 96.5 217.0 98.5Q217.0 100.2 217.8 100.2Q219.1 100.2 220.8 98.8Q222.6 97.4 224.6 95.0Q226.6 92.7 228.4 90.1Q230.3 87.5 231.7 85.4Q232.3 84.5 233.1 84.5Q233.7 84.6 234.5 84.8Q235.3 85.1 236.1 85.6Q236.9 86.2 236.9 87.4Q236.9 88.3 236.2 89.6Q235.5 90.8 234.7 92.2Q233.9 93.6 233.4 95.0Q232.8 96.3 232.8 97.4Q232.8 98.2 233.1 98.8Q233.4 99.4 234.1 99.4Q235.6 99.4 238.5 96.8Q241.5 94.2 245.4 87.3L247.6 89.6Q245.8 94.3 243.3 97.5Q240.8 100.5 237.9 102.3Q235.0 104.1 232.1 104.1Q228.9 104.1 227.3 102.2Q225.8 100.2 225.8 98.0Q225.8 97.5 225.8 96.9Q225.9 96.3 226.9 96.4Q224.8 100.8 222.1 103.1Q219.3 105.4 216.2 105.4ZM251.8 104.1Q248.8 104.1 247.0 101.5Q245.3 99.0 245.3 95.7Q245.3 93.5 246.0 90.7Q246.7 87.8 247.7 85.1Q248.8 82.3 250.1 80.3Q251.3 78.3 252.8 78.3Q253.4 78.3 254.4 78.8Q255.5 79.3 256.8 80.7Q255.6 82.6 254.5 85.0Q253.4 87.5 252.5 90.3Q251.7 93.0 251.7 95.3Q251.7 95.8 251.8 96.8Q252.0 97.9 252.3 98.4Q252.7 99.0 253.2 99.0Q254.1 99.0 255.3 97.8Q256.6 96.6 258.0 94.4Q259.4 92.3 260.8 89.7Q262.1 87.2 263.3 84.8Q264.5 82.4 265.7 80.1Q266.9 80.3 267.9 80.5Q268.8 80.8 269.8 81.3Q270.9 81.9 270.9 83.2Q270.9 83.7 270.1 85.5Q269.3 87.2 268.4 89.5Q267.4 91.8 266.7 94.1Q266.0 96.3 266.0 98.0Q266.0 98.9 266.3 99.3Q266.6 99.7 267.3 99.7Q268.5 99.7 270.4 98.5Q272.4 97.3 274.5 94.8Q276.6 92.3 278.9 87.5L281.6 89.4Q279.7 94.3 277.2 97.4Q274.6 100.5 271.6 102.3Q268.7 104.1 265.8 104.1Q263.6 104.1 262.2 103.2Q260.8 102.3 260.2 100.8Q259.6 99.3 259.6 97.7Q259.6 96.7 259.8 95.8Q259.9 94.8 261.2 94.1Q260.9 97.1 259.3 99.2Q257.7 101.4 255.9 102.7Q254.0 104.1 251.8 104.1ZM286.2 104.1Q282.5 104.1 280.9 101.6Q279.3 99.1 279.3 95.6Q279.3 92.0 280.6 87.1Q282.0 82.3 284.1 77.0Q286.2 71.6 288.8 66.6Q291.3 61.6 293.9 57.4Q296.4 53.2 298.8 50.6Q301.1 47.9 302.8 47.9Q304.3 47.9 305.0 49.1Q305.7 50.4 306.0 51.8Q306.3 53.2 306.3 54.3Q306.3 56.5 305.3 59.7Q304.3 63.0 302.5 66.9Q300.7 70.8 298.3 74.8Q295.8 78.7 292.9 82.4Q290.0 86.1 287.0 88.5Q286.7 90.0 286.5 91.8Q286.2 93.6 286.2 95.2Q286.2 97.7 286.8 98.6Q287.3 99.6 288.3 99.6Q289.8 99.6 291.5 98.0Q293.2 96.5 294.8 94.0Q296.4 91.5 298.1 87.6L301.2 89.3Q297.8 96.5 294.2 100.3Q290.5 104.1 286.2 104.1ZM288.6 82.3Q288.3 82.2 290.7 79.0Q293.0 75.8 295.0 72.3Q297.1 68.8 298.6 65.5Q300.2 62.3 301.0 59.8Q301.8 57.3 301.8 56.0Q301.8 55.7 302.1 55.4Q302.5 55.1 302.5 56.0Q302.4 56.0 301.2 57.5Q300.0 59.1 298.2 62.2Q296.3 65.3 294.4 69.2Q292.5 73.1 290.7 77.4Q289.0 81.6 288.6 82.3ZM305.6 105.3Q302.0 105.3 300.0 103.1Q298.0 101.0 298.0 97.0Q298.0 93.7 299.2 89.0Q300.5 84.3 302.5 80.1Q302.4 80.6 301.7 80.5Q301.0 80.4 299.6 79.9L299.6 76.5Q301.4 76.8 302.2 76.8Q303.0 76.9 303.2 76.9Q304.4 73.8 306.1 70.1Q307.9 66.4 309.6 63.5Q311.4 60.6 313.1 58.7Q314.9 56.7 316.4 56.7Q317.4 56.7 318.2 57.4Q319.1 58.1 319.1 59.4Q319.1 61.0 317.5 63.9Q315.9 66.8 313.7 70.6Q311.5 74.4 309.0 77.9Q309.0 77.2 309.7 77.2Q310.4 77.2 311.0 77.2Q313.4 77.2 316.0 77.1Q318.6 77.0 322.5 76.6L322.5 80.2Q317.5 80.7 314.3 81.0Q311.1 81.2 308.7 81.2Q308.4 81.2 308.1 81.2Q307.9 81.2 307.9 80.5Q307.0 84.2 305.9 88.2Q304.7 92.1 304.7 95.7Q304.7 98.5 305.4 99.4Q306.1 100.4 307.6 100.4Q311.0 100.4 314.3 97.3Q317.7 94.2 320.9 87.5L323.6 89.5Q321.5 94.5 318.8 97.9Q316.0 101.3 312.6 103.3Q309.3 105.3 305.6 105.3ZM369.5 108.2Q366.7 108.2 363.5 107.1Q360.2 106.0 356.9 104.4Q353.6 102.9 351.1 101.8Q349.7 103.3 347.6 104.5Q345.4 105.8 342.8 105.8Q340.2 105.8 338.3 104.5Q336.4 103.3 335.5 101.6Q334.5 99.8 334.5 98.4Q334.5 96.5 336.0 95.3Q337.6 94.1 340.9 94.1Q342.8 94.1 345.2 94.6Q347.5 95.0 349.2 95.4Q350.4 93.2 351.9 89.3Q353.3 85.3 354.8 80.8Q356.2 76.2 357.3 72.8Q354.8 72.0 352.6 69.6Q350.5 67.2 350.5 64.3Q350.5 62.8 351.1 61.3Q351.7 59.8 353.0 58.7Q354.3 57.5 358.2 57.5Q356.6 59.8 356.4 61.0Q356.2 62.2 356.2 63.1Q356.2 65.5 357.2 67.1Q358.2 68.7 358.6 68.9Q359.6 65.8 361.2 61.9Q362.7 58.0 364.7 54.8Q366.7 51.7 369.1 49.8Q371.6 47.9 374.7 47.9Q376.4 47.9 378.2 48.6Q380.1 49.4 381.5 51.3Q382.8 53.1 382.8 56.3Q382.8 59.0 381.7 62.0Q380.7 65.0 378.4 67.8Q376.2 70.5 372.7 72.2Q369.3 74.0 364.6 74.0Q364.5 74.0 364.3 74.0Q364.0 74.0 364.0 74.0Q362.9 77.7 361.2 82.2Q359.6 86.8 357.8 90.9Q356.0 95.0 354.7 97.0Q356.5 97.6 359.9 98.6Q363.2 99.7 366.3 100.3Q369.4 101.0 372.0 101.0Q373.4 101.0 374.4 100.8Q375.5 100.5 379.0 98.7Q376.9 105.0 374.7 106.6Q372.5 108.2 369.5 108.2ZM342.5 101.5Q343.8 101.5 345.0 100.7Q346.1 100.0 346.3 99.8Q345.5 99.4 343.4 98.8Q341.4 98.2 339.9 98.2Q338.8 98.2 338.7 98.3Q338.6 98.4 338.6 98.5Q338.6 99.2 339.7 100.3Q340.8 101.5 342.5 101.5ZM365.2 70.4Q366.6 70.4 369.0 68.8Q371.4 67.1 373.1 64.5Q374.8 61.8 375.7 59.1Q376.7 56.4 376.7 54.4Q376.7 52.8 376.2 52.4Q375.8 51.9 375.2 51.9Q373.6 51.9 371.8 54.5Q370.1 57.1 368.4 61.7Q366.6 66.4 365.2 70.4ZM387.7 105.4Q385.0 105.4 383.1 103.6Q381.2 101.8 381.2 98.3Q381.2 95.5 382.4 92.3Q383.7 89.2 385.7 86.1Q387.8 83.1 390.5 80.6Q393.1 78.1 396.2 76.6Q399.2 75.0 402.3 75.0Q405.5 75.0 407.7 76.8Q410.0 78.5 410.0 81.5Q410.0 83.9 408.6 84.9Q407.3 85.8 403.9 85.8Q404.4 83.8 404.4 83.2Q404.6 82.6 404.6 82.1Q404.6 80.8 404.0 80.0Q403.5 79.2 402.1 79.2Q400.5 79.2 398.6 80.5Q396.7 81.8 394.9 84.0Q393.0 86.2 391.5 88.9Q390.1 91.5 389.3 94.0Q388.4 96.5 388.4 98.5Q388.4 100.2 389.3 100.2Q390.5 100.2 392.3 98.8Q394.0 97.4 396.0 95.0Q398.0 92.7 399.9 90.1Q401.7 87.5 403.2 85.4Q403.8 84.5 404.6 84.5Q405.1 84.6 405.9 84.8Q406.8 85.1 407.6 85.6Q408.4 86.2 408.4 87.4Q408.4 88.3 407.7 89.6Q407.0 90.8 406.2 92.2Q405.4 93.6 404.8 95.0Q404.2 96.3 404.2 97.4Q404.2 98.2 404.6 98.8Q404.9 99.4 405.5 99.4Q407.0 99.4 410.0 96.8Q412.9 94.2 416.8 87.3L419.1 89.6Q417.3 94.3 414.8 97.5Q412.3 100.5 409.3 102.3Q406.4 104.1 403.5 104.1Q400.3 104.1 398.8 102.2Q397.2 100.2 397.2 98.0Q397.2 97.5 397.3 96.9Q397.4 96.3 398.3 96.4Q396.3 100.8 393.5 103.1Q390.8 105.4 387.7 105.4ZM423.3 104.1Q420.2 104.1 418.5 101.5Q416.7 99.0 416.7 95.7Q416.7 93.5 417.4 90.7Q418.2 87.8 419.2 85.1Q420.2 82.3 421.5 80.3Q422.8 78.3 424.2 78.3Q424.8 78.3 425.9 78.8Q427.0 79.3 428.3 80.7Q427.1 82.6 425.9 85.0Q424.8 87.5 424.0 90.3Q423.2 93.0 423.2 95.3Q423.2 95.8 423.3 96.8Q423.4 97.9 423.8 98.4Q424.1 99.0 424.6 99.0Q425.6 99.0 426.8 97.8Q428.0 96.6 429.4 94.4Q430.9 92.3 432.2 89.7Q433.6 87.2 434.8 84.8Q435.9 82.4 437.1 80.1Q438.4 80.3 439.3 80.5Q440.2 80.8 441.3 81.3Q442.3 81.9 442.3 83.2Q442.3 83.7 441.6 85.5Q440.8 87.2 439.8 89.5Q438.9 91.8 438.2 94.1Q437.5 96.3 437.5 98.0Q437.5 98.9 437.8 99.3Q438.0 99.7 438.7 99.7Q439.9 99.7 441.9 98.5Q443.8 97.3 446.0 94.8Q448.1 92.3 450.3 87.5L453.1 89.4Q451.2 94.3 448.6 97.4Q446.1 100.5 443.1 102.3Q440.1 104.1 437.2 104.1Q435.0 104.1 433.6 103.2Q432.2 102.3 431.6 100.8Q431.1 99.3 431.1 97.7Q431.1 96.7 431.2 95.8Q431.4 94.8 432.7 94.1Q432.4 97.1 430.8 99.2Q429.2 101.4 427.3 102.7Q425.4 104.1 423.3 104.1ZM474.9 103.4Q471.9 103.4 470.3 101.8Q468.7 100.1 468.7 97.7Q468.7 96.0 469.3 94.3Q469.9 92.5 470.3 90.9Q470.8 89.2 470.8 87.7Q470.8 86.2 470.3 85.7Q469.9 85.3 469.1 85.3Q467.2 85.3 465.1 86.9Q463.0 88.6 460.9 91.4Q458.8 94.1 457.0 97.1Q455.1 100.1 453.4 103.0Q451.4 103.0 450.1 102.5Q448.8 102.1 447.8 100.7Q447.8 99.8 448.6 97.8Q449.4 95.8 450.4 93.1Q451.4 90.4 452.1 87.6Q452.9 84.8 452.9 82.2Q453.7 81.2 454.9 80.6Q456.1 80.0 457.3 80.0Q460.4 80.0 460.4 83.0Q460.4 84.3 459.7 87.1Q459.1 89.9 457.0 92.5Q458.0 88.9 460.5 85.9Q463.0 82.9 465.9 80.8Q468.9 78.7 472.0 78.7Q475.4 78.7 476.9 81.1Q478.4 83.5 478.4 86.3Q478.4 88.7 477.6 90.8Q476.9 92.8 476.2 94.4Q475.5 96.1 475.5 97.7Q475.5 98.7 475.7 99.0Q476.0 99.3 476.5 99.3Q477.8 99.3 479.4 97.8Q481.0 96.3 482.7 93.8Q484.3 91.3 486.3 87.2L488.7 89.9Q486.8 94.2 484.9 97.0Q482.9 99.9 480.5 101.7Q478.0 103.4 474.9 103.4ZM495.2 106.0Q491.2 106.0 488.6 103.4Q486.0 100.7 486.0 95.7Q486.0 91.8 487.5 88.2Q488.9 84.6 491.4 81.8Q493.8 78.9 496.8 77.1Q499.8 75.4 502.9 75.4Q506.4 75.4 507.8 77.5Q509.1 79.6 509.1 81.8Q509.1 84.2 507.9 86.2Q506.7 88.2 504.4 88.2Q502.6 88.2 500.6 85.7Q502.5 84.6 503.2 83.2Q503.8 81.7 503.8 80.3Q503.8 79.8 503.8 79.7Q503.7 79.7 503.4 79.7Q501.8 79.7 500.0 81.2Q498.2 82.7 496.5 85.3Q494.8 88.0 493.8 90.8Q492.7 93.7 492.7 96.2Q492.7 98.1 493.5 99.6Q494.4 101.0 496.8 101.0Q499.4 101.0 502.1 99.5Q504.8 98.1 507.2 95.3Q509.6 92.5 511.6 87.3L514.4 89.5Q512.3 94.7 509.3 98.3Q506.3 101.9 502.7 103.9Q499.0 106.0 495.2 106.0ZM516.4 104.7Q514.2 104.7 513.2 101.9Q512.3 99.2 512.3 96.1Q512.3 92.5 513.4 87.7Q514.6 82.8 516.5 77.5Q518.4 72.2 520.8 67.1Q523.1 62.0 525.6 57.8Q528.1 53.7 530.5 51.0Q532.8 48.3 534.9 48.3Q537.0 48.3 537.7 50.3Q538.4 52.3 538.4 54.0Q538.4 56.2 537.5 59.2Q536.5 62.2 534.9 65.5Q533.3 68.9 531.2 72.1Q529.0 75.3 526.5 78.1Q524.0 80.8 521.6 82.2Q520.9 83.8 520.4 86.3Q519.8 88.9 519.5 91.3Q519.2 93.7 519.2 95.6Q519.2 96.3 519.2 96.9Q519.3 97.4 518.3 97.5Q518.2 94.7 519.4 91.9Q520.6 89.0 522.0 86.6Q523.4 84.2 525.1 82.3Q526.7 80.4 528.7 79.4Q530.6 78.3 532.8 78.3Q535.3 78.3 536.7 79.5Q538.2 80.7 538.8 82.4Q539.4 84.1 539.4 85.9Q539.4 88.3 538.6 90.5Q537.8 92.7 537.1 94.5Q536.3 96.4 536.3 98.0Q536.3 99.0 536.6 99.3Q536.9 99.6 537.4 99.6Q538.6 99.6 540.5 98.2Q542.3 96.7 544.3 94.2Q546.2 91.7 548.2 87.3L550.9 89.8Q549.0 94.1 546.7 97.1Q544.5 100.1 541.7 101.9Q538.9 103.7 535.7 103.7Q532.8 103.7 531.2 102.1Q529.6 100.4 529.6 98.0Q529.6 96.4 530.2 94.4Q530.8 92.5 531.3 90.6Q531.9 88.7 531.9 87.2Q531.9 85.8 531.4 85.3Q530.9 84.8 530.2 84.8Q528.9 84.8 527.7 86.0Q526.5 87.3 525.3 89.4Q524.2 91.6 523.2 94.1Q522.2 96.6 521.2 98.9Q520.2 101.2 519.1 103.0Q518.0 104.7 516.4 104.7ZM523.2 76.4Q522.9 76.2 524.7 73.8Q526.6 71.5 528.2 68.8Q529.8 66.0 531.1 63.4Q532.4 60.8 533.0 58.8Q533.7 56.7 533.7 55.8Q533.9 55.8 534.2 55.7Q534.6 55.5 534.6 56.4Q534.6 56.3 533.2 58.1Q531.9 59.9 529.9 63.1Q527.9 66.4 526.0 70.5Q524.1 74.6 523.2 76.4ZM557.3 105.1Q552.4 105.1 549.9 102.4Q547.3 99.6 547.3 95.7Q547.3 92.2 549.0 88.4Q550.8 84.6 553.6 81.3Q556.4 78.0 559.8 75.9Q563.3 73.8 566.8 73.8Q568.7 73.8 570.5 74.9Q572.4 76.0 572.4 79.3Q572.4 82.4 570.6 85.0Q568.8 87.7 566.0 89.7Q563.3 91.6 560.0 92.9Q556.7 94.1 554.2 94.2Q554.3 94.2 554.3 94.8Q554.2 95.4 554.2 95.9Q554.2 96.8 554.4 97.7Q554.6 98.6 555.1 99.3Q555.6 100.0 556.5 100.4Q557.3 100.8 558.8 100.8Q561.6 100.8 564.4 99.2Q567.2 97.5 569.7 94.8Q572.2 92.0 574.5 87.5L577.2 89.5Q574.8 94.8 571.7 98.1Q568.5 101.4 564.8 103.3Q561.1 105.1 557.3 105.1ZM555.3 90.2Q555.2 90.2 557.6 89.0Q560.0 87.8 562.1 86.2Q564.3 84.5 565.6 82.6Q566.9 80.8 566.9 78.8Q566.9 78.4 566.9 78.3Q566.9 78.3 566.5 78.3Q565.2 78.3 563.4 79.5Q561.7 80.7 560.0 82.7Q558.3 84.8 556.9 87.3Q555.5 89.8 555.3 90.2ZM588.2 103.8Q585.3 103.8 583.5 102.2Q581.8 100.6 581.8 98.0Q581.8 95.6 582.8 93.2Q583.9 90.7 584.8 88.5Q585.7 86.2 585.7 84.6Q585.7 82.8 584.6 81.9Q583.5 80.9 583.4 80.8Q582.2 83.8 580.4 87.7Q578.6 91.5 576.4 95.2L574.5 91.7Q575.8 89.3 577.4 85.8Q579.0 82.2 580.3 78.3Q579.8 77.8 579.8 76.3Q579.8 73.7 581.3 72.0Q582.8 70.3 583.9 70.3Q585.7 70.3 585.9 71.5Q586.1 72.7 586.1 73.1Q586.1 73.7 585.6 74.7Q585.2 75.8 585.3 75.8Q585.3 76.2 586.1 76.9Q587.0 77.5 588.5 78.6Q590.0 79.7 591.3 81.4Q592.6 83.1 592.6 85.8Q592.6 88.2 591.6 90.5Q590.7 92.9 589.9 94.8Q589.0 96.7 589.0 98.0Q589.0 98.7 589.3 98.8Q589.5 99.0 590.0 99.0Q591.5 99.0 593.1 98.0Q594.8 97.1 596.4 95.5Q598.1 93.9 599.4 92.2Q600.6 90.4 601.8 87.6L604.6 89.8Q602.8 93.7 600.3 96.8Q597.9 99.8 594.7 101.8Q591.6 103.8 588.2 103.8Z" fill="#1b1b1f"/>
  <text x="360" y="130" text-anchor="middle"
        font-family="'Segoe UI', Roboto, sans-serif" font-weight="400"
        font-size="18" fill="#74777f" letter-spacing="4">
    AN OPINIONATED DEFAULT LAUNCHER
  </text>
</svg>
