<svg xmlns="http://www.w3.org/2000/svg" width="720" height="160" viewBox="0 0 720 160">
  <path d="M147.53 95L147.53 51.25Q151.36 51.25 152.8 49.7Q154.27 48.12 154.27 45.1L154.27 37.64Q154.27 34.63 152.8 32.77Q151.36 30.88 147.53 30.88L147.53 22.83L185.42 22.83Q190.98 22.83 195.24 25.26Q199.53 27.67 202 31.91Q204.47 36.13 204.47 41.58L204.47 77.76Q204.47 78.77 204.36 79.73Q204.28 80.69 204.08 81.39Q202.66 87.65 197.56 91.32Q192.48 95 185.42 95L147.53 95ZM171.22 50.75L178.27 50.75Q182.09 50.75 183.6 49.24Q185.11 47.73 185.11 43.99L185.11 37.64Q185.11 33.82 183.6 32.35Q182.09 30.88 178.27 30.88L171.22 30.88L171.22 50.75ZM210.62 95L210.62 51.25Q214.45 51.25 215.91 49.43Q217.38 47.62 217.38 44.6L217.38 38.15Q217.38 35.13 215.87 33.01Q214.36 30.88 210.53 30.88L210.53 22.83L262.13 22.83L262.13 37.64L253.06 37.64Q253.06 34.63 251.59 32.77Q250.15 30.88 246.3 30.88L234.11 30.88L234.11 37.03L245.9 37.03L245.9 44.1L234.11 44.1L234.11 50.75L246.91 50.75Q250.74 50.75 252.2 49.19Q253.67 47.62 253.67 44.6L262.75 44.6L262.75 95L210.62 95ZM267.93 95L267.93 51.25Q271.76 51.25 273.2 49.43Q274.67 47.62 274.67 44.6L274.67 38.15Q274.67 35.13 273.16 33.01Q271.65 30.88 267.93 30.88L267.93 22.83L319.12 22.83L319.12 37.64L310.06 37.64Q310.06 34.63 308.6 32.77Q307.13 30.88 303.3 30.88L291.4 30.88L291.4 37.34L303.3 37.34L303.3 44.4L291.4 44.4Q291.4 47.42 292.91 49.08Q294.44 50.75 298.16 50.75L309.65 50.75L309.65 95L267.93 95ZM323.93 95L323.93 51.25Q326.34 51.25 328 50.7Q329.66 50.13 331.17 48.38Q332.7 46.61 334.8 43.18L347.01 22.83L366.57 22.83L377.85 42.89Q379.76 46.22 381.02 48.03Q382.29 49.85 383.96 50.55Q385.62 51.25 388.64 51.25L388.64 95L355.67 95L355.67 50.75L357.29 50.75Q358.91 50.75 359.81 49.81Q360.73 48.84 360.73 47.31Q360.73 45.91 359.81 45.02Q358.91 44.1 357.29 44.1L347.21 44.1Q345.39 44.1 344.58 45.17Q343.77 46.22 343.77 47.42Q343.77 49.04 344.82 49.89Q345.89 50.75 347.21 50.75L349.83 50.75L349.83 95L323.93 95ZM347.21 38.15L356.98 38.15L352.15 29.79L347.21 38.15ZM413.27 95.61Q406.23 95.61 401.13 91.63Q396.03 87.65 394.63 81.39Q394.52 80.58 394.37 79.69Q394.22 78.77 394.22 77.76L394.22 51.25Q400.98 51.25 400.98 44.6L400.98 38.15Q400.98 30.88 394.22 30.88L394.22 22.83L423.16 22.83L423.16 31.39Q416.9 31.39 416.9 38.15L416.9 45.41Q416.9 47.82 418.02 49.28Q419.13 50.75 421.03 50.75Q422.65 50.75 424.01 49.65Q425.37 48.54 425.67 44.49L426.37 44.49Q426.68 48.54 428.08 49.65Q429.5 50.75 431.12 50.75Q433.04 50.75 434.14 49.28Q435.25 47.82 435.25 45.41L435.25 38.15Q435.25 31.39 429 31.39L429 22.83L456.93 22.83L456.93 30.88Q450.17 30.88 450.17 38.15L450.17 44.6Q450.17 51.25 456.93 51.25L456.93 95L448.47 95L446.54 83.41Q446.04 80.19 444.68 78.83Q443.33 77.46 440.59 77.46L440.59 80.78Q440.59 88.55 436.81 92.09Q433.04 95.61 424.56 95.61L413.27 95.61ZM462.53 95L462.53 51.25Q466.36 51.25 467.87 49.43Q469.38 47.62 469.38 44.6L469.38 38.15Q469.38 35.13 467.87 33.01Q466.36 30.88 462.53 30.88L462.53 22.83L492.06 22.83L492.06 30.88Q488.32 30.88 486.81 33.01Q485.3 35.13 485.3 38.15L485.3 50.75L499.02 50.75Q502.85 50.75 504.29 49.19Q505.76 47.62 505.76 44.6L505.76 40.16L515.34 40.16L515.34 95L462.53 95ZM522.93 95L522.93 51.25L531.5 51.25Q535.33 51.25 536.8 49.7Q538.26 48.12 538.26 45.1L538.26 30.88L535.75 30.88Q532.01 30.88 530.5 33.01Q528.99 35.13 528.99 38.15L528.99 43.48L519.91 43.48L519.91 22.83L572.52 22.83L572.52 43.48L563.46 43.48L563.46 38.26Q563.46 35.22 562 33.05Q560.53 30.88 556.7 30.88L554.19 30.88L554.19 44.6Q554.19 47.62 555.7 49.43Q557.21 51.25 560.95 51.25L569.5 51.25L569.5 95L522.93 95Z" fill="#e3e2e6"/>
  <text x="360" y="128" text-anchor="middle"
        font-family="'Segoe UI', Roboto, sans-serif" font-weight="400"
        font-size="18" fill="#8e9199" letter-spacing="4">
    AN OPINIONATED DEFAULT LAUNCHER
  </text>
</svg>
